<?xml version="1.0" standalone="no"?>
<!DOCTYPE svg PUBLIC "-//W3C//DTD SVG 20010904//EN"
 "http://www.w3.org/TR/2001/REC-SVG-20010904/DTD/svg10.dtd">
<svg version="1.0" xmlns="http://www.w3.org/2000/svg"
 width="475.000000pt" height="475.000000pt" viewBox="0 0 475.000000 475.000000"
 preserveAspectRatio="xMidYMid meet">
<metadata>
Created by potrace 1.14, written by Peter Selinger 2001-2017
</metadata>
<g transform="translate(0.000000,475.000000) scale(0.100000,-0.100000)"
fill="#000000" stroke="none">
<path d="M3035 4518 c-27 -4 -64 -10 -81 -12 -44 -7 -132 -49 -184 -90 -168
-131 -259 -188 -307 -191 -6 0 -15 -4 -19 -8 -4 -4 -17 -7 -28 -7 -30 0 -279
-64 -375 -96 -56 -19 -78 -42 -174 -186 -89 -134 -76 -118 -187 -231 -82 -85
-85 -89 -86 -137 -2 -61 -16 -176 -29 -230 -3 -14 -8 -41 -11 -62 -3 -20 -16
-74 -28 -119 -23 -82 -23 -83 -4 -142 10 -33 20 -92 22 -131 1 -39 8 -81 14
-92 6 -11 10 -27 8 -35 -2 -8 -6 -30 -10 -51 l-8 -36 -51 38 c-43 33 -54 37
-71 28 -12 -6 -24 -16 -28 -22 -4 -6 -35 -10 -75 -8 -80 2 -106 -8 -168 -67
-25 -24 -49 -41 -52 -38 -2 3 -16 43 -29 89 -27 91 -27 91 -50 198 -9 41 -21
80 -26 87 -13 16 -76 7 -142 -19 -61 -24 -186 -97 -186 -109 0 -5 -7 -9 -15
-9 -14 0 -15 17 -10 128 3 70 8 143 11 162 2 19 6 58 8 87 2 29 12 63 23 80
35 51 38 57 20 50 -14 -5 -16 -2 -11 21 4 15 10 32 13 37 4 6 13 28 20 50 7
22 25 66 39 98 28 65 24 82 -13 47 -32 -30 -31 -27 4 46 15 32 31 69 35 81 11
33 -14 21 -43 -22 -13 -19 -34 -47 -48 -62 -49 -56 -182 -262 -217 -338 -55
-117 -109 -288 -132 -415 -3 -19 -7 -39 -8 -45 -3 -13 -18 -104 -21 -125 -1
-8 -5 -23 -10 -34 -13 -29 12 -38 85 -30 84 9 211 13 227 7 11 -4 26 -60 39
-143 2 -19 6 -44 8 -55 2 -11 7 -38 10 -60 3 -22 8 -51 11 -65 3 -14 8 -41 11
-60 3 -19 7 -42 9 -50 3 -8 7 -33 11 -55 11 -75 38 -139 62 -151 25 -12 101 7
295 73 l87 30 35 -38 c31 -34 34 -44 29 -76 -12 -76 -107 -231 -215 -349 -19
-22 -91 -88 -159 -149 -69 -60 -134 -121 -145 -135 -24 -30 -158 -229 -168
-250 -4 -8 -15 -27 -25 -42 -47 -72 -71 -121 -64 -133 13 -22 66 -88 94 -118
19 -20 34 -26 52 -23 14 2 30 -1 36 -9 11 -13 110 -13 170 0 26 6 29 1 33 -62
0 -7 3 -13 6 -13 7 0 61 59 61 66 0 3 10 18 22 35 18 24 23 45 24 112 3 96 7
119 35 184 12 26 34 84 51 128 16 44 37 89 47 100 10 11 20 27 23 35 3 9 31
29 63 45 l57 29 -32 26 -32 26 67 34 c36 19 73 43 81 52 14 15 14 17 -4 27
-21 11 -54 19 -86 20 -34 2 1 28 45 34 59 8 68 20 41 57 -21 27 -21 32 -8 58
18 35 102 119 126 127 13 4 33 -10 72 -51 65 -70 145 -123 229 -153 35 -13 65
-25 67 -26 2 -2 -3 -14 -11 -27 -29 -45 -30 -81 -3 -109 14 -15 31 -29 38 -32
8 -3 -4 -22 -37 -54 -69 -69 -154 -160 -192 -208 -69 -88 -176 -221 -196 -245
-31 -37 -187 -267 -187 -277 0 -4 -9 -19 -20 -33 -20 -25 -27 -60 -12 -60 12
0 143 80 166 102 11 10 24 18 30 18 5 0 20 10 33 22 l24 23 -6 -48 c-7 -50 -2
-55 29 -32 28 22 36 19 31 -12 -2 -16 -7 -46 -10 -68 -3 -22 -7 -54 -10 -72
-3 -17 -7 -80 -10 -138 -4 -84 -3 -106 7 -103 14 5 110 150 153 233 15 28 33
57 41 65 12 12 14 11 14 -13 0 -34 5 -34 35 1 l23 27 6 -25 c3 -14 10 -52 15
-85 17 -103 56 -255 76 -295 13 -24 13 -24 38 30 13 30 33 78 45 105 11 28 36
85 56 127 19 42 47 108 62 147 l28 71 23 -40 c13 -22 26 -40 28 -40 6 0 40
113 37 123 -1 4 1 7 6 7 4 0 26 -46 49 -103 43 -102 80 -173 88 -165 5 4 18
287 16 329 -1 24 5 20 68 -42 38 -38 74 -69 80 -69 11 0 11 5 -7 103 -7 33 -6
47 2 47 13 0 15 -1 194 -99 132 -73 186 -87 139 -38 -27 29 -77 88 -77 92 0 1
55 -17 123 -42 171 -62 496 -157 506 -148 8 8 -55 81 -166 194 l-113 113 62
-6 c94 -10 230 -8 241 3 6 6 9 12 6 14 -46 34 -97 74 -107 84 -7 7 -33 27 -57
44 -25 18 -45 35 -45 38 2 30 122 116 235 170 28 13 57 28 65 33 8 4 25 12 36
17 27 12 31 25 27 76 -6 79 12 116 105 208 48 47 100 97 116 111 37 34 30 40
-24 21 -24 -8 -45 -13 -48 -10 -3 3 0 5 6 5 7 0 12 7 12 15 0 12 -5 13 -27 3
-16 -7 -43 -22 -62 -35 -19 -12 -37 -21 -39 -19 -2 2 6 23 18 46 25 49 21 58
-14 35 -14 -10 -26 -14 -26 -10 0 17 62 94 105 130 175 146 173 144 186 205
17 80 48 134 143 251 82 101 92 123 44 98 -13 -6 -21 -9 -18 -6 3 3 57 61 122
129 126 133 164 178 151 178 -4 0 -19 -9 -33 -20 -14 -11 -29 -20 -33 -20 -4
0 -59 -34 -122 -75 -62 -41 -118 -75 -124 -75 -5 0 -11 -4 -13 -8 -1 -4 -23
-19 -48 -34 -25 -14 -74 -42 -110 -62 -59 -34 -106 -61 -210 -119 -19 -10 -41
-24 -47 -29 -18 -14 -26 12 -14 44 10 27 6 36 -54 117 -27 37 -43 47 -98 65
-15 5 -16 9 -7 27 12 21 88 59 118 59 23 0 72 45 111 100 30 42 32 49 25 100
-13 105 -19 244 -11 257 14 22 64 32 91 18 47 -25 71 -22 152 17 37 18 45 29
69 89 43 109 120 199 275 319 25 19 51 41 59 48 8 7 24 20 37 29 35 22 29 32
-13 23 l-37 -9 35 32 c40 37 125 109 154 132 19 15 19 15 -10 9 -65 -13 -257
-117 -311 -168 -6 -6 -30 -27 -53 -46 -24 -19 -75 -65 -114 -103 -70 -66 -72
-68 -117 -63 -25 2 -79 12 -120 21 -110 24 -112 25 -149 31 -78 13 -125 -17
-292 -186 -68 -70 -78 -92 -94 -220 -15 -117 -25 -151 -56 -190 -49 -61 -71
-72 -142 -69 -55 2 -67 7 -123 48 l-62 46 1 53 c0 36 -4 57 -14 63 -16 10
-150 2 -186 -12 -13 -5 -23 -7 -23 -4 0 2 -17 -2 -38 -9 -37 -13 -39 -13 -79
23 -49 43 -158 101 -190 101 -16 0 -28 13 -48 56 -30 64 -31 60 38 199 22 44
50 100 62 124 22 44 24 80 10 175 -5 36 36 78 147 148 65 42 89 42 187 -6 l73
-35 40 19 c21 10 73 29 114 41 62 18 78 27 86 48 11 29 21 53 72 164 20 44 36
82 36 87 0 12 58 36 120 50 86 20 87 20 71 30 -14 8 27 23 94 36 11 2 31 6 45
9 14 3 43 8 65 11 47 7 54 12 35 24 -12 8 -11 10 5 11 59 2 185 30 185 41 0 5
-4 7 -8 4 -4 -2 -14 -1 -22 5 -11 6 -5 9 20 10 19 1 49 3 65 5 27 4 113 10
173 13 35 2 26 19 -15 27 -21 4 -47 8 -58 10 -76 14 -197 34 -233 39 -23 2
-61 7 -85 11 -23 3 -55 7 -72 9 -26 3 -123 19 -195 32 -46 8 -165 9 -215 1z
m362 -2204 c18 -21 33 -42 33 -46 0 -3 -16 -16 -35 -28 -35 -22 -53 -46 -60
-78 -16 -78 -106 -305 -133 -336 -9 -10 -44 -32 -77 -48 -73 -37 -130 -39
-255 -9 -110 26 -270 36 -291 19 -12 -10 -97 -128 -133 -185 -1 -1 -24 3 -51
8 -95 18 -120 22 -162 23 -22 0 -39 4 -36 9 15 24 12 57 -7 70 -19 13 -19 15
-3 29 10 8 25 19 35 24 37 20 132 120 173 181 21 33 32 42 49 38 63 -14 88
-17 161 -17 218 -2 310 40 380 174 l29 55 30 -18 c37 -23 50 -24 42 -4 -6 18
-3 18 48 4 48 -13 63 -1 35 30 -12 12 -19 25 -16 27 3 3 38 -2 78 -10 106 -22
113 -11 40 62 -59 60 -60 61 -33 64 15 2 49 3 76 2 45 -1 53 -5 83 -40z
m-2582 -1410 c21 -73 16 -83 -23 -45 -31 32 -31 32 -15 66 9 19 18 35 19 35 1
0 10 -25 19 -56z"/>
</g>
</svg>
